ffmpeg started on 2025-05-12 at 13:38:59
Report written to "D:\Convert\FFMetrics\reports\ssim_report-6.txt"
Log level: 32
Command line:
ffmpeg -hide_banner -nostdin -i "G:\\\xc0\xed\xe8\xec\xe5\\\xce\xed\xe3\xee\xe8\xed\xe3\xe8\\!_35_\xcb\xe5\xf2\xee_2024\\DreamCast\\\xc0\xf2\xf0\xe8 - \xcc\xee\xe8 \xe4\xee\xf0\xee\xe3\xe8\xe5 \xec\xee\xec\xe5\xed\xf2\xfb\\[DC] Atri - My Dear Moments - 05_Telegram_HEVC.mkv" -i "G:\\\xc0\xed\xe8\xec\xe5\\\xce\xed\xe3\xee\xe8\xed\xe3\xe8\\!_35_\xcb\xe5\xf2\xee_2024\\DreamCast\\\xc0\xf2\xf0\xe8 - \xcc\xee\xe8 \xe4\xee\xf0\xee\xe3\xe8\xe5 \xec\xee\xec\xe5\xed\xf2\xfb\\[DC] Atri - My Dear Moments - 05_Telegram.mp4" -lavfi "[0:v]settb=AVTB,setpts=PTS-STARTPTS,format=pix_fmts=yuv420p10,fps=24000/1001,scale=1920:1080:flags=bicubic[main];[1:v]settb=AVTB,setpts=PTS-STARTPTS,format=pix_fmts=yuv420p,fps=24000/1001,scale=1920:1080:flags=bicubic[ref];[main][ref]ssim=eof_action=endall:stats_file='D\\:/Convert/FFMetrics/logs/ssim_logfile-6.txt'" -f null -
Input #0, matroska,webm, from 'G:\Аниме\Онгоинги\!_35_Лето_2024\DreamCast\Атри - Мои дорогие моменты\[DC] Atri - My Dear Moments - 05_Telegram_HEVC.mkv':
  Metadata:
    COMPATIBLE_BRANDS: isomiso2avc1mp41
    MAJOR_BRAND     : isom
    MINOR_VERSION   : 512
    ENCODER         : Lavf61.7.100
  Duration: 00:23:46.65, start: -0.021000, bitrate: 896 kb/s
  Stream #0:0: Video: hevc (Main 10), yuv420p10le(tv, bt709, progressive), 1920x1080 [SAR 1:1 DAR 16:9], 23.98 fps, 23.98 tbr, 1k tbn (default)
      Metadata:
        HANDLER_NAME    : VideoHandler
        VENDOR_ID       : [0][0][0][0]
        ENCODER         : Lavc61.19.100 libx265
        BPS             : 699397
        DURATION        : 00:23:46.549708333
        NUMBER_OF_FRAMES: 34203
        NUMBER_OF_BYTES : 124715623
        _STATISTICS_WRITING_APP: mkvpropedit v66.0.0 ('Josie') 64-bit
        _STATISTICS_WRITING_DATE_UTC: 2025-05-06 14:16:31
        _STATISTICS_TAGS: BPS DURATION NUMBER_OF_FRAMES NUMBER_OF_BYTES
  Stream #0:1: Audio: aac (LC), 48000 Hz, stereo, fltp (default)
      Metadata:
        HANDLER_NAME    : SoundHandler
        VENDOR_ID       : [0][0][0][0]
        ENCODER         : Lavc61.19.100 aac
        BPS             : 193354
        DURATION        : 00:23:46.645000000
        NUMBER_OF_FRAMES: 66875
        NUMBER_OF_BYTES : 34481028
        _STATISTICS_WRITING_APP: mkvpropedit v66.0.0 ('Josie') 64-bit
        _STATISTICS_WRITING_DATE_UTC: 2025-05-06 14:16:31
        _STATISTICS_TAGS: BPS DURATION NUMBER_OF_FRAMES NUMBER_OF_BYTES
Input #1, mov,mp4,m4a,3gp,3g2,mj2, from 'G:\Аниме\Онгоинги\!_35_Лето_2024\DreamCast\Атри - Мои дорогие моменты\[DC] Atri - My Dear Moments - 05_Telegram.mp4':
  Metadata:
    major_brand     : isom
    minor_version   : 512
    compatible_brands: isomiso2avc1mp41
    encoder         : Lavf61.1.100
  Duration: 00:23:46.62, start: 0.000000, bitrate: 3407 kb/s
  Stream #1:0[0x1](und): Video: h264 (High) (avc1 / 0x31637661), yuv420p(tv, bt709, progressive), 1920x1080 [SAR 1:1 DAR 16:9], 3259 kb/s, 23.98 fps, 23.98 tbr, 24k tbn (default)
      Metadata:
        handler_name    : VideoHandler
        vendor_id       : [0][0][0][0]
        encoder         : Lavc61.3.100 h264_qsv
  Stream #1:1[0x2](und): Audio: aac (HE-AACv2) (mp4a / 0x6134706D), 48000 Hz, stereo, fltp, 144 kb/s (default)
      Metadata:
        handler_name    : SoundHandler
        vendor_id       : [0][0][0][0]
Stream mapping:
  Stream #0:0 (hevc) -> settb:default
  Stream #1:0 (h264) -> settb:default
  ssim:default -> Stream #0:0 (wrapped_avframe)
  Stream #0:1 -> #0:1 (aac (native) -> pcm_s16le (native))
Output #0, null, to 'pipe:':
  Metadata:
    COMPATIBLE_BRANDS: isomiso2avc1mp41
    MAJOR_BRAND     : isom
    MINOR_VERSION   : 512
    encoder         : Lavf61.7.100
  Stream #0:0: Video: wrapped_avframe, yuv420p10le(tv, bt709, progressive), 1920x1080 [SAR 1:1 DAR 16:9], q=2-31, 200 kb/s, 23.98 fps, 23.98 tbn
      Metadata:
        encoder         : Lavc61.19.100 wrapped_avframe
  Stream #0:1: Audio: pcm_s16le, 48000 Hz, stereo, s16, 1536 kb/s (default)
      Metadata:
        HANDLER_NAME    : SoundHandler
        VENDOR_ID       : [0][0][0][0]
        _STATISTICS_TAGS: BPS DURATION NUMBER_OF_FRAMES NUMBER_OF_BYTES
        BPS             : 193354
        DURATION        : 00:23:46.645000000
        NUMBER_OF_FRAMES: 66875
        NUMBER_OF_BYTES : 34481028
        _STATISTICS_WRITING_APP: mkvpropedit v66.0.0 ('Josie') 64-bit
        _STATISTICS_WRITING_DATE_UTC: 2025-05-06 14:16:31
        encoder         : Lavc61.19.100 pcm_s16le
frame=  175 fps=0.0 q=-0.0 size=N/A time=00:00:07.29 bitrate=N/A speed=  14x    frame=  406 fps=395 q=-0.0 size=N/A time=00:00:16.93 bitrate=N/A speed=16.5x    frame=  641 fps=414 q=-0.0 size=N/A time=00:00:26.73 bitrate=N/A speed=17.2x    frame=  877 fps=423 q=-0.0 size=N/A time=00:00:36.57 bitrate=N/A speed=17.6x    frame= 1093 fps=424 q=-0.0 size=N/A time=00:00:45.58 bitrate=N/A speed=17.7x    frame= 1376 fps=444 q=-0.0 size=N/A time=00:00:57.39 bitrate=N/A speed=18.5x    frame= 1646 fps=456 q=-0.0 size=N/A time=00:01:08.65 bitrate=N/A speed=  19x    frame= 1899 fps=459 q=-0.0 size=N/A time=00:01:19.20 bitrate=N/A speed=19.2x    frame= 2133 fps=460 q=-0.0 size=N/A time=00:01:28.96 bitrate=N/A speed=19.2x    frame= 2360 fps=457 q=-0.0 size=N/A time=00:01:38.43 bitrate=N/A speed=19.1x    frame= 2597 fps=458 q=-0.0 size=N/A time=00:01:48.31 bitrate=N/A speed=19.1x    frame= 2826 fps=457 q=-0.0 size=N/A time=00:01:57.86 bitrate=N/A speed=  19x    frame= 3056 fps=455 q=-0.0 size=N/A time=00:02:07.46 bitrate=N/A speed=  19x    frame= 3272 fps=453 q=-0.0 size=N/A time=00:02:16.46 bitrate=N/A speed=18.9x    frame= 3469 fps=448 q=-0.0 size=N/A time=00:02:24.68 bitrate=N/A speed=18.7x    frame= 3682 fps=446 q=-0.0 size=N/A time=00:02:33.57 bitrate=N/A speed=18.6x    frame= 3905 fps=446 q=-0.0 size=N/A time=00:02:42.87 bitrate=N/A speed=18.6x    frame= 4147 fps=446 q=-0.0 size=N/A time=00:02:52.96 bitrate=N/A speed=18.6x    frame= 4372 fps=446 q=-0.0 size=N/A time=00:03:02.34 bitrate=N/A speed=18.6x    frame= 4598 fps=446 q=-0.0 size=N/A time=00:03:11.77 bitrate=N/A speed=18.6x    frame= 4870 fps=449 q=-0.0 size=N/A time=00:03:23.11 bitrate=N/A speed=18.7x    frame= 5131 fps=452 q=-0.0 size=N/A time=00:03:34.00 bitrate=N/A speed=18.9x    frame= 5387 fps=454 q=-0.0 size=N/A time=00:03:44.68 bitrate=N/A speed=  19x    frame= 5669 fps=458 q=-0.0 size=N/A time=00:03:56.44 bitrate=N/A speed=19.1x    frame= 5922 fps=459 q=-0.0 size=N/A time=00:04:06.99 bitrate=N/A speed=19.1x    frame= 6185 fps=461 q=-0.0 size=N/A time=00:04:17.96 bitrate=N/A speed=19.2x    frame= 6468 fps=464 q=-0.0 size=N/A time=00:04:29.76 bitrate=N/A speed=19.4x    frame= 6715 fps=465 q=-0.0 size=N/A time=00:04:40.07 bitrate=N/A speed=19.4x    frame= 6979 fps=467 q=-0.0 size=N/A time=00:04:51.08 bitrate=N/A speed=19.5x    frame= 7220 fps=467 q=-0.0 size=N/A time=00:05:01.13 bitrate=N/A speed=19.5x    frame= 7491 fps=468 q=-0.0 size=N/A time=00:05:12.43 bitrate=N/A speed=19.5x    frame= 7763 fps=470 q=-0.0 size=N/A time=00:05:23.78 bitrate=N/A speed=19.6x    frame= 8020 fps=471 q=-0.0 size=N/A time=00:05:34.50 bitrate=N/A speed=19.6x    frame= 8260 fps=470 q=-0.0 size=N/A time=00:05:44.51 bitrate=N/A speed=19.6x    frame= 8502 fps=471 q=-0.0 size=N/A time=00:05:54.60 bitrate=N/A speed=19.6x    frame= 8734 fps=470 q=-0.0 size=N/A time=00:06:04.28 bitrate=N/A speed=19.6x    frame= 8969 fps=470 q=-0.0 size=N/A time=00:06:14.08 bitrate=N/A speed=19.6x    frame= 9197 fps=469 q=-0.0 size=N/A time=00:06:23.59 bitrate=N/A speed=19.6x    frame= 9439 fps=469 q=-0.0 size=N/A time=00:06:33.68 bitrate=N/A speed=19.6x    frame= 9665 fps=468 q=-0.0 size=N/A time=00:06:43.11 bitrate=N/A speed=19.5x    frame= 9886 fps=467 q=-0.0 size=N/A time=00:06:52.32 bitrate=N/A speed=19.5x    frame=10113 fps=466 q=-0.0 size=N/A time=00:07:01.79 bitrate=N/A speed=19.5x    frame=10354 fps=467 q=-0.0 size=N/A time=00:07:11.84 bitrate=N/A speed=19.5x    frame=10617 fps=467 q=-0.0 size=N/A time=00:07:22.81 bitrate=N/A speed=19.5x    frame=10871 fps=468 q=-0.0 size=N/A time=00:07:33.41 bitrate=N/A speed=19.5x    frame=11126 fps=469 q=-0.0 size=N/A time=00:07:44.04 bitrate=N/A speed=19.5x    frame=11380 fps=469 q=-0.0 size=N/A time=00:07:54.64 bitrate=N/A speed=19.6x    frame=11661 fps=471 q=-0.0 size=N/A time=00:08:06.36 bitrate=N/A speed=19.6x    frame=11935 fps=472 q=-0.0 size=N/A time=00:08:17.78 bitrate=N/A speed=19.7x    frame=12200 fps=473 q=-0.0 size=N/A time=00:08:28.84 bitrate=N/A speed=19.7x    frame=12451 fps=473 q=-0.0 size=N/A time=00:08:39.31 bitrate=N/A speed=19.7x    frame=12723 fps=474 q=-0.0 size=N/A time=00:08:50.65 bitrate=N/A speed=19.8x    frame=12997 fps=475 q=-0.0 size=N/A time=00:09:02.08 bitrate=N/A speed=19.8x    frame=13285 fps=477 q=-0.0 size=N/A time=00:09:14.09 bitrate=N/A speed=19.9x    frame=13558 fps=478 q=-0.0 size=N/A time=00:09:25.48 bitrate=N/A speed=19.9x    frame=13822 fps=478 q=-0.0 size=N/A time=00:09:36.49 bitrate=N/A speed=  20x    frame=14035 fps=477 q=-0.0 size=N/A time=00:09:45.37 bitrate=N/A speed=19.9x    frame=14251 fps=476 q=-0.0 size=N/A time=00:09:54.38 bitrate=N/A speed=19.9x    frame=14505 fps=476 q=-0.0 size=N/A time=00:10:04.97 bitrate=N/A speed=19.9x    frame=14775 fps=477 q=-0.0 size=N/A time=00:10:16.24 bitrate=N/A speed=19.9x    frame=15052 fps=478 q=-0.0 size=N/A time=00:10:27.79 bitrate=N/A speed=19.9x    frame=15320 fps=479 q=-0.0 size=N/A time=00:10:38.97 bitrate=N/A speed=  20x    frame=15597 fps=480 q=-0.0 size=N/A time=00:10:50.52 bitrate=N/A speed=  20x    frame=15867 fps=480 q=-0.0 size=N/A time=00:11:01.78 bitrate=N/A speed=  20x    frame=16142 fps=481 q=-0.0 size=N/A time=00:11:13.25 bitrate=N/A speed=20.1x    frame=16425 fps=482 q=-0.0 size=N/A time=00:11:25.05 bitrate=N/A speed=20.1x    frame=16665 fps=482 q=-0.0 size=N/A time=00:11:35.06 bitrate=N/A speed=20.1x    frame=16912 fps=482 q=-0.0 size=N/A time=00:11:45.37 bitrate=N/A speed=20.1x    frame=17187 fps=483 q=-0.0 size=N/A time=00:11:56.84 bitrate=N/A speed=20.1x    frame=17461 fps=483 q=-0.0 size=N/A time=00:12:08.26 bitrate=N/A speed=20.2x    frame=17726 fps=484 q=-0.0 size=N/A time=00:12:19.32 bitrate=N/A speed=20.2x    frame=17982 fps=484 q=-0.0 size=N/A time=00:12:29.99 bitrate=N/A speed=20.2x    frame=18262 fps=485 q=-0.0 size=N/A time=00:12:41.67 bitrate=N/A speed=20.2x    frame=18502 fps=485 q=-0.0 size=N/A time=00:12:51.68 bitrate=N/A speed=20.2x    frame=18778 fps=485 q=-0.0 size=N/A time=00:13:03.19 bitrate=N/A speed=20.2x    frame=19056 fps=486 q=-0.0 size=N/A time=00:13:14.79 bitrate=N/A speed=20.3x    frame=19323 fps=486 q=-0.0 size=N/A time=00:13:25.93 bitrate=N/A speed=20.3x    frame=19543 fps=486 q=-0.0 size=N/A time=00:13:35.10 bitrate=N/A speed=20.3x    frame=19779 fps=485 q=-0.0 size=N/A time=00:13:44.94 bitrate=N/A speed=20.2x    frame=20040 fps=485 q=-0.0 size=N/A time=00:13:55.83 bitrate=N/A speed=20.2x    frame=20299 fps=486 q=-0.0 size=N/A time=00:14:06.63 bitrate=N/A speed=20.3x    frame=20564 fps=486 q=-0.0 size=N/A time=00:14:17.69 bitrate=N/A speed=20.3x    frame=20856 fps=487 q=-0.0 size=N/A time=00:14:29.86 bitrate=N/A speed=20.3x    frame=21115 fps=487 q=-0.0 size=N/A time=00:14:40.67 bitrate=N/A speed=20.3x    frame=21387 fps=487 q=-0.0 size=N/A time=00:14:52.01 bitrate=N/A speed=20.3x    frame=21650 fps=488 q=-0.0 size=N/A time=00:15:02.98 bitrate=N/A speed=20.3x    frame=21917 fps=488 q=-0.0 size=N/A time=00:15:14.12 bitrate=N/A speed=20.4x    frame=22204 fps=489 q=-0.0 size=N/A time=00:15:26.09 bitrate=N/A speed=20.4x    frame=22470 fps=489 q=-0.0 size=N/A time=00:15:37.18 bitrate=N/A speed=20.4x    frame=22734 fps=489 q=-0.0 size=N/A time=00:15:48.19 bitrate=N/A speed=20.4x    frame=23000 fps=490 q=-0.0 size=N/A time=00:15:59.29 bitrate=N/A speed=20.4x    frame=23262 fps=490 q=-0.0 size=N/A time=00:16:10.21 bitrate=N/A speed=20.4x    frame=23530 fps=490 q=-0.0 size=N/A time=00:16:21.39 bitrate=N/A speed=20.4x    frame=23794 fps=490 q=-0.0 size=N/A time=00:16:32.40 bitrate=N/A speed=20.5x    frame=24030 fps=490 q=-0.0 size=N/A time=00:16:42.25 bitrate=N/A speed=20.4x    frame=24278 fps=490 q=-0.0 size=N/A time=00:16:52.59 bitrate=N/A speed=20.4x    frame=24505 fps=490 q=-0.0 size=N/A time=00:17:02.06 bitrate=N/A speed=20.4x    frame=24768 fps=490 q=-0.0 size=N/A time=00:17:13.03 bitrate=N/A speed=20.4x    frame=25027 fps=490 q=-0.0 size=N/A time=00:17:23.83 bitrate=N/A speed=20.4x    frame=25298 fps=490 q=-0.0 size=N/A time=00:17:35.13 bitrate=N/A speed=20.4x    frame=25570 fps=490 q=-0.0 size=N/A time=00:17:46.48 bitrate=N/A speed=20.5x    frame=25853 fps=491 q=-0.0 size=N/A time=00:17:58.28 bitrate=N/A speed=20.5x    frame=26123 fps=491 q=-0.0 size=N/A time=00:18:09.54 bitrate=N/A speed=20.5x    frame=26396 fps=492 q=-0.0 size=N/A time=00:18:20.93 bitrate=N/A speed=20.5x    frame=26666 fps=492 q=-0.0 size=N/A time=00:18:32.19 bitrate=N/A speed=20.5x    frame=26940 fps=492 q=-0.0 size=N/A time=00:18:43.62 bitrate=N/A speed=20.5x    frame=27222 fps=493 q=-0.0 size=N/A time=00:18:55.38 bitrate=N/A speed=20.6x    frame=27494 fps=493 q=-0.0 size=N/A time=00:19:06.72 bitrate=N/A speed=20.6x    frame=27733 fps=493 q=-0.0 size=N/A time=00:19:16.69 bitrate=N/A speed=20.6x    frame=27971 fps=493 q=-0.0 size=N/A time=00:19:26.62 bitrate=N/A speed=20.5x    frame=28232 fps=493 q=-0.0 size=N/A time=00:19:37.50 bitrate=N/A speed=20.5x    frame=28488 fps=493 q=-0.0 size=N/A time=00:19:48.18 bitrate=N/A speed=20.6x    frame=28743 fps=493 q=-0.0 size=N/A time=00:19:58.82 bitrate=N/A speed=20.6x    frame=28992 fps=493 q=-0.0 size=N/A time=00:20:09.20 bitrate=N/A speed=20.6x    frame=29249 fps=493 q=-0.0 size=N/A time=00:20:19.92 bitrate=N/A speed=20.5x    frame=29508 fps=493 q=-0.0 size=N/A time=00:20:30.72 bitrate=N/A speed=20.6x    frame=29739 fps=492 q=-0.0 size=N/A time=00:20:40.36 bitrate=N/A speed=20.5x    frame=29978 fps=492 q=-0.0 size=N/A time=00:20:50.33 bitrate=N/A speed=20.5x    frame=30223 fps=492 q=-0.0 size=N/A time=00:21:00.55 bitrate=N/A speed=20.5x    frame=30446 fps=492 q=-0.0 size=N/A time=00:21:09.85 bitrate=N/A speed=20.5x    frame=30715 fps=492 q=-0.0 size=N/A time=00:21:21.07 bitrate=N/A speed=20.5x    frame=30989 fps=492 q=-0.0 size=N/A time=00:21:32.49 bitrate=N/A speed=20.5x    frame=31264 fps=492 q=-0.0 size=N/A time=00:21:43.96 bitrate=N/A speed=20.5x    frame=31539 fps=493 q=-0.0 size=N/A time=00:21:55.43 bitrate=N/A speed=20.6x    frame=31823 fps=493 q=-0.0 size=N/A time=00:22:07.28 bitrate=N/A speed=20.6x    frame=32055 fps=493 q=-0.0 size=N/A time=00:22:16.96 bitrate=N/A speed=20.6x    frame=32294 fps=493 q=-0.0 size=N/A time=00:22:26.92 bitrate=N/A speed=20.5x    frame=32489 fps=492 q=-0.0 size=N/A time=00:22:35.06 bitrate=N/A speed=20.5x    frame=32670 fps=491 q=-0.0 size=N/A time=00:22:42.61 bitrate=N/A speed=20.5x    frame=32870 fps=490 q=-0.0 size=N/A time=00:22:50.95 bitrate=N/A speed=20.4x    frame=33062 fps=489 q=-0.0 size=N/A time=00:22:58.96 bitrate=N/A speed=20.4x    frame=33240 fps=488 q=-0.0 size=N/A time=00:23:06.38 bitrate=N/A speed=20.4x    frame=33429 fps=487 q=-0.0 size=N/A time=00:23:14.26 bitrate=N/A speed=20.3x    frame=33627 fps=486 q=-0.0 size=N/A time=00:23:22.52 bitrate=N/A speed=20.3x    frame=33814 fps=485 q=-0.0 size=N/A time=00:23:30.32 bitrate=N/A speed=20.2x    frame=34039 fps=485 q=-0.0 size=N/A time=00:23:39.70 bitrate=N/A speed=20.2x    [Parsed_ssim_10 @ 000001e404beb940] SSIM Y:0.993860 (22.118609) U:0.992697 (21.365222) V:0.992883 (21.477295) All:0.993504 (21.873371)
[out#0/null @ 000001e403c245c0] video:14697KiB audio:267500KiB subtitle:0KiB other streams:0KiB global headers:0KiB muxing overhead: unknown
frame=34203 fps=485 q=-0.0 Lsize=N/A time=00:23:46.55 bitrate=N/A speed=20.2x    
